<mxfile host="app.diagrams.net" modified="2024-03-25T11:29:12.855Z" agent="Mozilla/5.0 (Windows NT 10.0; Win64; x64) AppleWebKit/537.36 (KHTML, like Gecko) Chrome/123.0.0.0 Safari/537.36" version="24.1.0" etag="bwgE-7p-qbCenYGogMrP" type="github">
  <diagram name="Page-1" id="UlqBrm0KN_k0y74fEyOq">
    <mxGraphModel>
      <root>
        <mxCell id="0" />
        <mxCell id="1" parent="0" />
      </root>
    </mxGraphModel>
  </diagram>
</mxfile>
